<svg width="24" height="24" viewBox="0 0 24 24" fill="none" xmlns="http://www.w3.org/2000/svg">
<path d="M16.7701 7.36838L14.2199 9.8847L10.1606 13.8901L9.23745 14.801H11.0903L7.70211 11.4481C7.54497 11.2898 7.38457 11.1348 7.22743 10.9765C6.74293 10.4984 5.8525 10.4629 5.37455 10.9765C4.89332 11.4933 4.85731 12.2912 5.37455 12.8048L8.76277 16.1577C8.91991 16.316 9.08032 16.4711 9.23745 16.6293C9.73832 17.1236 10.5895 17.1236 11.0903 16.6293L13.6405 14.113L17.6998 10.1076L18.623 9.19667C19.1075 8.7186 19.1435 7.83999 18.623 7.36838C18.0992 6.89678 17.2874 6.85802 16.7701 7.36838Z" fill="white"/>
</svg>
