<svg width="24" height="24" viewBox="0 0 24 24" fill="none" xmlns="http://www.w3.org/2000/svg">
<path d="M20.5 3V5.5M20.5 5.5V8M20.5 5.5H23M20.5 5.5H18" stroke="#FDFEFE" stroke-linecap="round" stroke-linejoin="round"/>
<path d="M12.1213 14.1213C11.8428 14.3999 11.512 14.6209 11.1481 14.7717C10.7841 14.9224 10.394 15 10 15C9.60603 15 9.21592 14.9224 8.85194 14.7717C8.48796 14.6209 8.15724 14.3999 7.87866 14.1213M8.5 10.5C8.5 10.776 8.388 11 8.25 11C8.112 11 8 10.776 8 10.5C8 10.224 8.112 10 8.25 10C8.388 10 8.5 10.224 8.5 10.5ZM8.25 10.5H8.25533V10.51H8.25V10.5ZM12 10.5C12 10.776 11.888 11 11.75 11C11.612 11 11.5 10.776 11.5 10.5C11.5 10.224 11.612 10 11.75 10C11.888 10 12 10.224 12 10.5ZM11.75 10.5H11.7553V10.51H11.75V10.5Z" stroke="#FDFEFE" stroke-linecap="round" stroke-linejoin="round"/>
<path d="M15.5433 14.2961C15.8448 13.5681 16 12.7879 16 12C16 10.4087 15.3679 8.88258 14.2426 7.75736C13.1174 6.63214 11.5913 6 10 6C8.4087 6 6.88258 6.63214 5.75736 7.75736C4.63214 8.88258 4 10.4087 4 12C4 12.7879 4.15519 13.5681 4.45672 14.2961C4.75825 15.0241 5.20021 15.6855 5.75736 16.2426C6.31451 16.7998 6.97595 17.2417 7.7039 17.5433C8.43185 17.8448 9.21207 18 10 18C10.7879 18 11.5681 17.8448 12.2961 17.5433C13.0241 17.2417 13.6855 16.7998 14.2426 16.2426C14.7998 15.6855 15.2417 15.0241 15.5433 14.2961Z" stroke="#FDFEFE" stroke-width="2" stroke-linecap="round" stroke-linejoin="round"/>
</svg>
