<svg width="24" height="24" viewBox="0 0 24 24" fill="none" xmlns="http://www.w3.org/2000/svg">
<path d="M20 13C20 18 16.5 20.5 12.34 21.95C12.1222 22.0238 11.8855 22.0203 11.67 21.94C7.5 20.5 4 18 4 13V5.99999C4 5.73478 4.10536 5.48042 4.29289 5.29289C4.48043 5.10535 4.73478 4.99999 5 4.99999C7 4.99999 9.5 3.79999 11.24 2.27999C11.4519 2.09899 11.7214 1.99954 12 1.99954C12.2786 1.99954 12.5481 2.09899 12.76 2.27999C14.51 3.80999 17 4.99999 19 4.99999C19.2652 4.99999 19.5196 5.10535 19.7071 5.29289C19.8946 5.48042 20 5.73478 20 5.99999V13Z" stroke="#FDFEFE" stroke-width="2" stroke-linecap="round" stroke-linejoin="round"/>
<path d="M6.37598 18.91C6.80269 17.7622 7.5704 16.7724 8.576 16.0736C9.5816 15.3748 10.777 15.0004 12.0015 15.0008C13.2261 15.0011 14.4212 15.3761 15.4265 16.0754C16.4317 16.7748 17.1989 17.765 17.625 18.913" stroke="#FDFEFE" stroke-width="2" stroke-linecap="round" stroke-linejoin="round"/>
<path d="M12 15C14.2091 15 16 13.2091 16 11C16 8.79086 14.2091 7 12 7C9.79086 7 8 8.79086 8 11C8 13.2091 9.79086 15 12 15Z" stroke="#FDFEFE" stroke-width="2" stroke-linecap="round" stroke-linejoin="round"/>
</svg>
