<svg width="24" height="24" viewBox="0 0 24 24" fill="none" xmlns="http://www.w3.org/2000/svg">
<path d="M4.16439 16.3489C4.01608 16.3488 3.8711 16.3048 3.7478 16.2224C3.62449 16.14 3.52838 16.0229 3.47163 15.8859C3.41488 15.7488 3.40003 15.5981 3.42895 15.4526C3.45788 15.3071 3.52928 15.1735 3.63414 15.0686L15.3544 3.34838C15.4236 3.27675 15.5063 3.21961 15.5978 3.18031C15.6893 3.141 15.7878 3.12031 15.8873 3.11944C15.9869 3.11858 16.0857 3.13755 16.1779 3.17527C16.27 3.21298 16.3538 3.26867 16.4242 3.33909C16.4946 3.4095 16.5503 3.49324 16.588 3.58542C16.6257 3.67759 16.6447 3.77635 16.6438 3.87593C16.643 3.97552 16.6223 4.07393 16.583 4.16543C16.5437 4.25694 16.4865 4.3397 16.4149 4.40888L4.69464 16.1291C4.54839 16.2754 4.35639 16.3489 4.16439 16.3489Z" fill="white"/>
<path d="M3.0064 21.75C2.89449 21.7501 2.78397 21.7251 2.68296 21.677C2.58195 21.6288 2.49299 21.5586 2.42262 21.4716C2.35225 21.3846 2.30225 21.2829 2.27628 21.1741C2.2503 21.0652 2.24902 20.9519 2.27252 20.8425L3.43127 15.4414C3.45167 15.3448 3.49092 15.2532 3.54678 15.1719C3.60264 15.0905 3.67401 15.021 3.75679 14.9672C3.83958 14.9135 3.93215 14.8767 4.02921 14.8588C4.12627 14.8409 4.2259 14.8424 4.32239 14.8631C4.41889 14.8838 4.51035 14.9233 4.59153 14.9794C4.67271 15.0355 4.74202 15.1071 4.79549 15.1901C4.84895 15.273 4.88552 15.3657 4.90309 15.4628C4.92067 15.5599 4.9189 15.6596 4.8979 15.756L3.73915 21.1571C3.70321 21.3248 3.61088 21.4752 3.47754 21.583C3.3442 21.6909 3.17792 21.7499 3.0064 21.75ZM8.40677 20.5912C8.25846 20.5912 8.11349 20.5472 7.99018 20.4648C7.86687 20.3824 7.77077 20.2653 7.71401 20.1282C7.65726 19.9912 7.64241 19.8404 7.67133 19.695C7.70026 19.5495 7.77166 19.4159 7.87652 19.311L19.5968 7.59112C19.666 7.51949 19.7487 7.46235 19.8402 7.42304C19.9317 7.38374 20.0301 7.36305 20.1297 7.36218C20.2293 7.36132 20.3281 7.38029 20.4202 7.418C20.5124 7.45571 20.5961 7.5114 20.6666 7.58182C20.737 7.65224 20.7927 7.73598 20.8304 7.82815C20.8681 7.92032 20.8871 8.01908 20.8862 8.11867C20.8853 8.21825 20.8647 8.31667 20.8253 8.40817C20.786 8.49967 20.7289 8.58243 20.6573 8.65162L8.9374 20.3715C8.8678 20.4413 8.78509 20.4966 8.69402 20.5343C8.60296 20.5721 8.50534 20.5914 8.40677 20.5912Z" fill="white"/>
<path d="M3.00482 21.75C2.82001 21.7492 2.64199 21.6803 2.50488 21.5563C2.36776 21.4324 2.2812 21.2623 2.26179 21.0785C2.24237 20.8947 2.29145 20.7102 2.39964 20.5604C2.50783 20.4105 2.6675 20.3059 2.84807 20.2665L8.24919 19.1077C8.44341 19.0667 8.64597 19.1044 8.81249 19.2124C8.979 19.3205 9.09588 19.4902 9.13752 19.6842C9.17915 19.8783 9.14215 20.081 9.03461 20.2479C8.92707 20.4147 8.75777 20.5321 8.56382 20.5744L3.16269 21.7331C3.11083 21.7444 3.0579 21.7501 3.00482 21.75ZM18.0056 10.9924C17.9071 10.9926 17.8095 10.9732 17.7185 10.9355C17.6275 10.8978 17.5448 10.8424 17.4753 10.7726L13.2329 6.53025C13.1613 6.46107 13.1042 6.37831 13.0649 6.28681C13.0256 6.1953 13.0049 6.09689 13.004 5.9973C13.0031 5.89772 13.0221 5.79896 13.0598 5.70679C13.0975 5.61461 13.1532 5.53087 13.2236 5.46046C13.2941 5.39004 13.3778 5.33435 13.47 5.29664C13.5622 5.25892 13.6609 5.23995 13.7605 5.24081C13.8601 5.24168 13.9585 5.26237 14.05 5.30168C14.1415 5.34098 14.2243 5.39812 14.2934 5.46975L18.5358 9.71213C18.6407 9.81702 18.7121 9.95064 18.741 10.0961C18.7699 10.2416 18.7551 10.3923 18.6983 10.5294C18.6416 10.6664 18.5455 10.7835 18.4222 10.8659C18.2989 10.9483 18.1539 10.9923 18.0056 10.9924ZM20.1269 8.87138C19.9785 8.87149 19.8334 8.82757 19.71 8.74517C19.5865 8.66276 19.4903 8.54559 19.4335 8.40847C19.3767 8.27135 19.3618 8.12046 19.3908 7.9749C19.4198 7.82933 19.4913 7.69564 19.5963 7.59075C20.0137 7.17338 20.2436 6.60825 20.2436 6C20.2436 5.39175 20.0137 4.82663 19.5963 4.40925C19.1786 3.9915 18.6134 3.76163 18.0052 3.76163C17.3969 3.76163 16.8318 3.9915 16.4144 4.40925C16.3448 4.47891 16.2621 4.53417 16.1711 4.57186C16.0801 4.60956 15.9825 4.62897 15.884 4.62897C15.7855 4.62897 15.6879 4.60956 15.5969 4.57186C15.5059 4.53417 15.4232 4.47891 15.3536 4.40925C15.2839 4.33959 15.2287 4.2569 15.191 4.16589C15.1533 4.07487 15.1339 3.97733 15.1339 3.87881C15.1339 3.7803 15.1533 3.68276 15.191 3.59174C15.2287 3.50073 15.2839 3.41804 15.3536 3.34838C16.0541 2.6475 16.9957 2.26163 18.0052 2.26163C19.0143 2.26163 19.9563 2.6475 20.6568 3.34838C21.3577 4.04888 21.7436 4.9905 21.7436 6C21.7436 7.0095 21.3577 7.95113 20.6568 8.65163C20.5874 8.7214 20.5048 8.77673 20.4138 8.81445C20.3229 8.85216 20.2254 8.87151 20.1269 8.87138Z" fill="white"/>
</svg>
