<svg width="24" height="24" viewBox="0 0 24 24" fill="none" xmlns="http://www.w3.org/2000/svg">
<path d="M15.169 17.082C17.0322 16.8614 18.8629 16.4217 20.623 15.772C19.1324 14.1208 18.3087 11.9745 18.312 9.75V9C18.312 7.4087 17.6799 5.88258 16.5546 4.75736C15.4294 3.63214 13.9033 3 12.312 3C10.7207 3 9.19458 3.63214 8.06936 4.75736C6.94414 5.88258 6.312 7.4087 6.312 9V9.75C6.31502 11.9746 5.49099 14.121 4 15.772C5.733 16.412 7.56 16.857 9.455 17.082M15.169 17.082C13.271 17.3071 11.353 17.3071 9.455 17.082M15.169 17.082C15.3131 17.5319 15.3489 18.0094 15.2736 18.4757C15.1982 18.942 15.0138 19.384 14.7354 19.7656C14.4569 20.1472 14.0923 20.4576 13.6712 20.6716C13.2501 20.8856 12.7844 20.9972 12.312 20.9972C11.8396 20.9972 11.3739 20.8856 10.9528 20.6716C10.5317 20.4576 10.1671 20.1472 9.88862 19.7656C9.61017 19.384 9.42576 18.942 9.35041 18.4757C9.27506 18.0094 9.3109 17.5319 9.455 17.082" stroke="#FDFEFE" stroke-width="2" stroke-linecap="round" stroke-linejoin="round"/>
</svg>
