<svg width="193" height="96" viewBox="0 0 193 96" fill="none" xmlns="http://www.w3.org/2000/svg">
<path d="M116.941 9L143.773 9.47059L144.715 27.8235L137.654 33.9412L123.532 38.1765H116L116.941 9Z" fill="#FDFEFE"/>
<path d="M28.7146 47.0589H40.9537L49.4268 53.1765L83.7902 54.1177V47.0589H106.856L107.798 54.1177H113.917L115.8 56.9412L121.449 54.1177L129.451 53.1765L136.983 46.1177L148.28 47.0589L149.222 53.1765L158.166 54.1177L165.227 60.2353L165.698 80.9412L161.461 82.353L37.6585 83.2941L28.7146 75.7647V47.0589Z" fill="#FDFEFE"/>
<path fill-rule="evenodd" clip-rule="evenodd" d="M114.288 5.89282L112.368 12.1008L112.411 40.7408H119.568V44.5616H123.409L127.25 40.7408H133.973L146.453 28.3248V5.89282H114.288ZM143.077 26.4304L137.796 31.6848H129.154L124.353 36.4608V31.6848H117.167V9.23522H143.093V26.432L143.077 26.4304ZM134.436 15.4448H137.813V24.9968H134.436V15.4448ZM125.794 15.4448H129.172V24.9968H125.794V15.4448ZM166.602 59.8608V82.3088L154.122 90.9056H146.455V87.088L140.694 90.9088H133.974V87.088L129.653 90.9088H117.172L113.331 87.088L112.371 90.9088L101.354 90.88L97.0115 87.088L96.529 90.9088L84.0483 90.88L83.5658 87.088L80.1883 90.88L60.9848 90.9088L57.1441 88.9984V90.9088H46.5934L35.0713 83.744L27.8692 76.5792V45.0592H42.7527L49.9548 52.224H82.604V45.056H109.489V52.2208H116.212V56.0416L120.052 52.2208H128.215L135.417 45.056H150.78V52.2208H158.942L166.602 59.8608ZM46.5934 55.5648H39.8706V48.4H31.2338V75.1456L36.5156 80.8768H46.5999V71.8016H39.877V64.16H46.5999V55.5632L46.5934 55.5648ZM82.6008 55.5648H73.9592V71.8048H70.5817V55.5648H62.4194V71.8048H59.0419V55.5648H49.9548V80.8768H76.8397L82.6008 75.1456V55.5616V55.5648ZM94.1229 55.5648H85.9654V80.8768H94.1277V55.5648H94.1229ZM94.1229 48.4H85.9654V52.2208H94.1277V48.4H94.1229ZM112.847 55.5648H106.124V48.4H97.4827V75.1456L102.764 80.8768H112.849V71.8016H106.126V64.16H112.849V55.5632L112.847 55.5648ZM134.93 55.5648H121.487L116.205 60.8192V75.1472L121.966 80.8784H134.93V71.8032H125.328V64.16H134.93V55.5648ZM163.255 60.8192L157.494 55.5648H147.41V48.4H138.288V80.8768H147.41V64.16H154.133V80.8768H163.255V60.816V60.8192Z" fill="url(#paint0_linear_509_858)"/>
<defs>
<linearGradient id="paint0_linear_509_858" x1="27.8692" y1="47.704" x2="166.602" y2="47.704" gradientUnits="userSpaceOnUse">
<stop stop-color="#9C44FF"/>
<stop offset="0.499816" stop-color="#8418FF"/>
<stop offset="1" stop-color="#8E2CFE"/>
</linearGradient>
</defs>
</svg>
